<svg data-v-0dd9719b="" version="1.0" xmlns="http://www.w3.org/2000/svg"
    xmlns:xlink="http://www.w3.org/1999/xlink" width="100%" height="100%"
    viewBox="0 0 340.000000 250.000000" preserveAspectRatio="xMidYMid meet"
    color-interpolation-filters="sRGB" style="margin: auto;">
    <rect data-v-0dd9719b="" x="0" y="0" width="100%" height="100%" fill="#ffffff" fill-opacity="1"
        class="background"></rect>
    <rect data-v-0dd9719b="" x="0" y="0" width="100%" height="100%" fill="url(#watermark)"
        fill-opacity="1" class="watermarklayer"></rect>
    <g data-v-0dd9719b="" fill="#383c93" class="basesvg"
        transform="translate(56.79499816894531,100.56500053405762)">
        <g data-gra="path-name" fill-rule="" class="tp-name">
            <g transform="scale(1)">
                <g>
                    <path
                        d="M25.66-2.98L28.08-9.34 29.41-9.34Q29.67-7.9 29.87-5.72 30.08-3.54 29.98-1.49L29.98-1.49Q29.21-0.87 28.13-0.49 27.05-0.1 25.84 0.15 24.64 0.41 23.38 0.51 22.12 0.62 20.99 0.62L20.99 0.62Q16.68 0.62 13.29-0.49 9.91-1.59 7.57-3.85 5.24-6.11 3.98-9.62 2.72-13.14 2.72-17.96L2.72-17.96Q2.72-22.99 4.11-26.51 5.49-30.03 7.85-32.26 10.21-34.49 13.35-35.52 16.48-36.55 19.92-36.55L19.92-36.55Q23.3-36.55 25.61-36.11 27.92-35.67 29.67-34.8L29.67-34.8Q29.67-33.98 29.62-32.88 29.56-31.77 29.46-30.54 29.36-29.31 29.21-28.13 29.05-26.95 28.9-25.97L28.9-25.97 27.56-25.97 24.89-33.36Q24.33-33.67 23.02-33.77 21.71-33.88 20.43-33.88L20.43-33.88Q17.86-33.88 15.58-32.93 13.29-31.98 11.57-30 9.85-28.02 8.83-25.02 7.8-22.02 7.8-17.96L7.8-17.96Q7.8-14.32 8.73-11.37 9.65-8.42 11.39-6.34 13.14-4.26 15.65-3.16 18.17-2.05 21.35-2.05L21.35-2.05Q23.05-2.05 24.18-2.31 25.3-2.57 25.66-2.98L25.66-2.98ZM54.1-6.72L54.1-6.72Q54.1-5.59 54.15-4.77 54.2-3.95 54.25-3.03L54.25-3.03 57.8-2.52 57.8-1.44Q56.51-0.77 54.95-0.26 53.38 0.26 51.94 0.51L51.94 0.51 50.66 0.51Q50.15-0.67 50.04-2.08 49.94-3.49 49.89-5.18L49.89-5.18 49.63-5.18Q49.43-4.16 48.84-3.11 48.25-2.05 47.3-1.23 46.35-0.41 45.07 0.1 43.78 0.62 42.14 0.62L42.14 0.62Q39.01 0.62 37.03-1.28 35.06-3.18 35.06-6.26L35.06-6.26Q35.06-8.62 36.01-10.14 36.96-11.65 38.8-12.52 40.65-13.4 43.37-13.78 46.09-14.17 49.69-14.37L49.69-14.37Q49.89-16.58 49.81-18.35 49.74-20.12 49.25-21.38 48.76-22.64 47.81-23.33 46.86-24.02 45.32-24.02L45.32-24.02Q44.6-24.02 43.71-23.94 42.81-23.87 41.93-23.51L41.93-23.51 39.52-17.35 38.19-17.35Q37.67-18.89 37.29-20.53 36.9-22.17 36.8-23.76L36.8-23.76Q38.75-24.95 41.14-25.61 43.53-26.28 46.45-26.28L46.45-26.28Q49.07-26.28 50.63-25.54 52.2-24.79 53.02-23.61 53.84-22.43 54.1-20.99 54.36-19.56 54.36-18.12L54.36-18.12Q54.36-15.04 54.23-12.19 54.1-9.34 54.1-6.72ZM44.19-2.57L44.19-2.57Q45.48-2.57 46.45-3.08 47.43-3.59 48.09-4.31 48.76-5.03 49.17-5.77 49.58-6.52 49.74-7.03L49.74-7.03 49.74-12.42Q46.76-12.42 44.86-12.11 42.96-11.81 41.88-11.14 40.81-10.47 40.4-9.47 39.98-8.47 39.98-7.19L39.98-7.19Q39.98-4.98 41.11-3.77 42.24-2.57 44.19-2.57ZM72.47-1.28L72.47 0 61.08 0 61.08-1.28Q62.77-2.1 64.47-2.52L64.47-2.52 64.47-35.01 60.57-35.42 60.57-36.75Q61.9-37.37 63.9-37.83 65.9-38.29 67.8-38.6L67.8-38.6 69.09-38.6 69.09-2.52Q70.78-2.1 72.47-1.28L72.47-1.28ZM87.92-1.28L87.92 0 76.53 0 76.53-1.28Q78.22-2.1 79.92-2.52L79.92-2.52 79.92-35.01 76.02-35.42 76.02-36.75Q77.35-37.37 79.35-37.83 81.35-38.29 83.25-38.6L83.25-38.6 84.54-38.6 84.54-2.52Q86.23-2.1 87.92-1.28L87.92-1.28ZM121.13-14.22L121.13-2.46Q120.16-1.9 118.85-1.36 117.54-0.82 116.08-0.38 114.62 0.05 113.15 0.33 111.69 0.62 110.41 0.62L110.41 0.62Q106.3 0.62 103.01-0.49 99.73-1.59 97.42-3.88 95.11-6.16 93.85-9.65 92.6-13.14 92.6-17.96L92.6-17.96Q92.6-22.99 94.06-26.54 95.52-30.08 97.96-32.31 100.4-34.54 103.5-35.54 106.61-36.55 109.84-36.55L109.84-36.55Q113.23-36.55 115.56-36.11 117.9-35.67 119.65-34.8L119.65-34.8Q119.65-34.03 119.59-32.9 119.54-31.77 119.44-30.54 119.34-29.31 119.18-28.1 119.03-26.9 118.88-25.97L118.88-25.97 117.54-25.97 114.87-33.36Q114.31-33.67 112.97-33.77 111.64-33.88 110.35-33.88L110.35-33.88Q107.79-33.88 105.48-32.93 103.17-31.98 101.45-30 99.73-28.02 98.7-25.02 97.68-22.02 97.68-17.96L97.68-17.96Q97.68-14.32 98.68-11.39 99.68-8.47 101.45-6.39 103.22-4.31 105.61-3.18 107.99-2.05 110.77-2.05L110.77-2.05Q111.79-2.05 112.77-2.26 113.74-2.46 114.56-2.75 115.38-3.03 115.92-3.34 116.46-3.64 116.67-3.85L116.67-3.85 116.67-14.22Q115.33-14.32 114.13-14.68 112.92-15.04 111.74-15.45L111.74-15.45 111.74-16.94 124.32-16.94 124.32-15.45Q123.8-15.09 123.08-14.78 122.37-14.47 121.13-14.22L121.13-14.22ZM144.54-21.81L137.71-21.81Q137.15-21.51 136.3-20.56 135.45-19.61 134.79-17.76L134.79-17.76 134.79-2.52Q135.81-2.41 136.84-2.13 137.87-1.85 138.89-1.28L138.89-1.28 138.89 0 126.78 0 126.78-1.28Q127.7-1.8 128.52-2.05 129.35-2.31 130.17-2.52L130.17-2.52 130.17-22.69 126.78-23.1 126.78-24.43Q128.42-25.15 130.17-25.59 131.91-26.02 133.5-26.28L133.5-26.28 134.79-26.28 134.79-20.84 134.99-20.84Q135.45-21.87 136.3-22.89 137.15-23.92 138.25-24.74 139.36-25.56 140.66-26 141.97-26.43 143.36-26.28L143.36-26.28Q143.72-25.61 144-24.82 144.28-24.02 144.54-23.15L144.54-23.15 144.54-21.81ZM165.94-6.72L165.94-6.72Q165.94-5.59 165.99-4.77 166.05-3.95 166.1-3.03L166.1-3.03 169.64-2.52 169.64-1.44Q168.36-0.77 166.79-0.26 165.22 0.26 163.79 0.51L163.79 0.51 162.5 0.51Q161.99-0.67 161.89-2.08 161.79-3.49 161.73-5.18L161.73-5.18 161.48-5.18Q161.27-4.16 160.68-3.11 160.09-2.05 159.14-1.23 158.19-0.41 156.91 0.1 155.63 0.62 153.98 0.62L153.98 0.62Q150.85 0.62 148.88-1.28 146.9-3.18 146.9-6.26L146.9-6.26Q146.9-8.62 147.85-10.14 148.8-11.65 150.65-12.52 152.49-13.4 155.22-13.78 157.94-14.17 161.53-14.37L161.53-14.37Q161.73-16.58 161.66-18.35 161.58-20.12 161.09-21.38 160.6-22.64 159.66-23.33 158.71-24.02 157.17-24.02L157.17-24.02Q156.45-24.02 155.55-23.94 154.65-23.87 153.78-23.51L153.78-23.51 151.37-17.35 150.03-17.35Q149.52-18.89 149.13-20.53 148.75-22.17 148.65-23.76L148.65-23.76Q150.6-24.95 152.98-25.61 155.37-26.28 158.3-26.28L158.3-26.28Q160.91-26.28 162.48-25.54 164.04-24.79 164.86-23.61 165.69-22.43 165.94-20.99 166.2-19.56 166.2-18.12L166.2-18.12Q166.2-15.04 166.07-12.19 165.94-9.34 165.94-6.72ZM156.04-2.57L156.04-2.57Q157.32-2.57 158.3-3.08 159.27-3.59 159.94-4.31 160.6-5.03 161.02-5.77 161.43-6.52 161.58-7.03L161.58-7.03 161.58-12.42Q158.6-12.42 156.7-12.11 154.8-11.81 153.73-11.14 152.65-10.47 152.24-9.47 151.83-8.47 151.83-7.19L151.83-7.19Q151.83-4.98 152.96-3.77 154.09-2.57 156.04-2.57ZM183.8 8.98L183.8 10.27 172.41 10.27 172.41 8.98Q174.16 8.16 175.8 7.75L175.8 7.75 175.8-22.69 172.41-23.1 172.41-24.43Q174.05-25.15 175.77-25.59 177.49-26.02 179.13-26.28L179.13-26.28 180.42-26.28 180.42-20.53 180.47-20.53Q181.5-23.15 183.34-24.71 185.19-26.28 188.17-26.28L188.17-26.28Q192.74-26.28 195.25-23.25 197.77-20.22 197.77-13.4L197.77-13.4Q197.77-10.16 196.92-7.55 196.07-4.93 194.51-3.13 192.94-1.33 190.71-0.36 188.48 0.62 185.76 0.62L185.76 0.62Q183.86 0.62 182.78 0.38 181.7 0.15 180.42-0.41L180.42-0.41 180.42 7.75Q181.24 7.85 182.06 8.14 182.88 8.42 183.8 8.98L183.8 8.98ZM186.53-23.1L186.53-23.1Q184.01-23.1 182.52-21.51 181.03-19.92 180.42-17.14L180.42-17.14 180.42-2.77Q181.34-2.21 182.5-1.92 183.65-1.64 185.5-1.64L185.5-1.64Q187.19-1.64 188.55-2.52 189.91-3.39 190.86-4.98 191.81-6.57 192.33-8.7 192.84-10.83 192.84-13.4L192.84-13.4Q192.84-15.5 192.51-17.27 192.17-19.04 191.43-20.35 190.68-21.66 189.48-22.38 188.27-23.1 186.53-23.1ZM229.13-1.28L229.13 0 218.04 0 218.04-1.28Q219.27-1.95 221.12-2.52L221.12-2.52 221.12-14.53Q221.12-18.53 219.99-20.81 218.86-23.1 215.88-23.1L215.88-23.1Q214.55-23.1 213.47-22.61 212.39-22.12 211.52-21.35 210.65-20.58 210.03-19.58 209.42-18.58 209.11-17.5L209.11-17.5 209.11-2.52Q209.93-2.31 210.68-2.05 211.42-1.8 212.14-1.28L212.14-1.28 212.14 0 201.1 0 201.1-1.28Q202.69-2.1 204.49-2.52L204.49-2.52 204.49-35.01 200.59-35.42 200.59-36.75Q202.08-37.37 204.05-37.83 206.03-38.29 207.83-38.6L207.83-38.6 209.11-38.6 209.11-20.48 209.16-20.48Q210.24-22.89 212.27-24.59 214.29-26.28 217.17-26.28L217.17-26.28Q219.22-26.28 220.84-25.79 222.45-25.3 223.53-24.07 224.61-22.84 225.18-20.76 225.74-18.68 225.74-15.5L225.74-15.5 225.74-2.52Q226.61-2.31 227.48-2.05 228.36-1.8 229.13-1.28L229.13-1.28Z"
                        transform="translate(-2.7200000286102295, 38.599998474121094)"></path>
                </g> <!----> <!----> <!----> <!----> <!----> <!----> <!---->
            </g>
        </g> <!---->
    </g>
    <defs v-gra="od"></defs>
</svg>